<svg xmlns="http://www.w3.org/2000/svg" xml:space="preserve" width="414.868" height="383.66" viewBox="0 0 414.868 383.66"><g style="display:inline"><path d="M124.242 81.68c-16.162.04-31.3 5.213-43.918 15.336-42.126 33.793-19.132 111.514 0 162.017 86.63 228.622 244.626 277.614 352.645 0 19.132-50.503 42.126-128.224 0-162.017-33.648-26.993-85.22-18.79-126.33 28.068-18.164 20.704-49.142 64.928-49.993 66.143-.85-1.215-31.828-45.44-49.992-66.143-25.693-29.286-55.475-43.473-82.412-43.404" style="display:inline;opacity:1;fill:#fff;fill-opacity:1;stroke:none;stroke-width:30;stroke-linejoin:round;stroke-dasharray:none;stroke-opacity:1;paint-order:stroke markers fill" transform="translate(-39.467 -63.579)scale(.96203)"/><path d="M124.242 81.68c-16.162.04-31.3 5.213-43.918 15.336-42.126 33.793-19.132 111.514 0 162.017 86.63 228.622 244.626 277.614 352.645 0 19.132-50.503 42.126-128.224 0-162.017-33.648-26.993-85.22-18.79-126.33 28.068-18.164 20.704-49.142 64.928-49.993 66.143-.85-1.215-31.828-45.44-49.992-66.143-25.693-29.286-55.475-43.473-82.412-43.404" style="display:inline;opacity:1;fill:none;fill-opacity:1;stroke:#06266c;stroke-width:31.1821;stroke-linecap:round;stroke-linejoin:round;stroke-dasharray:none;stroke-opacity:1;paint-order:stroke markers fill" transform="translate(-39.467 -63.579)scale(.96203)"/><g style="display:inline"><path d="M157.434 266.733s5.174-93.773 98.001-96.203 99.8 96.203 99.8 96.203M320.563 339.661s2.07-37.062 39.196-38.034 39.914 38.034 39.914 38.034M111.728 339.661s2.07-37.062 39.195-38.034 39.915 38.034 39.915 38.034" style="opacity:1;fill:none;fill-opacity:1;stroke:#0095ac;stroke-width:31.1821;stroke-linecap:round;stroke-linejoin:round;stroke-dasharray:none;stroke-opacity:1;paint-order:stroke markers fill" transform="matrix(.96203 0 0 -.96203 -39.467 448.43)"/></g></g></svg>