<svg xmlns="http://www.w3.org/2000/svg" xml:space="preserve" width="512" height="512" viewBox="0 0 512 512"><g style="display:inline"><path d="M256 73.318c-40.23 0-178.57 37.2-178.57 49.698v136.017S73.877 388.197 256 459.092c182.123-70.895 176.969-200.059 176.969-200.059V123.016c0-12.499-136.218-49.698-176.969-49.698Z" style="display:inline;opacity:1;fill:#fff;fill-opacity:1;stroke:#06266c;stroke-width:30;stroke-linejoin:round;stroke-dasharray:none;stroke-opacity:1;paint-order:stroke markers fill"/><path d="M256 73.318c-40.23 0-178.57 37.2-178.57 49.698v136.017S73.877 388.197 256 459.092c182.123-70.895 176.969-200.059 176.969-200.059V123.016c0-12.499-136.218-49.698-176.969-49.698" style="opacity:1;fill:none;fill-opacity:1;stroke:#06266c;stroke-width:30;stroke-linecap:round;stroke-linejoin:round;stroke-dasharray:none;stroke-opacity:1;paint-order:stroke markers fill"/><path d="M146 275s5.755-104.297 109-107 111 107 111 107" style="opacity:1;fill:none;fill-opacity:1;stroke:#0095ac;stroke-width:30;stroke-linecap:round;stroke-linejoin:round;stroke-dasharray:none;stroke-opacity:1;paint-order:stroke markers fill"/><path d="M206.275 275s2.557-45.799 48.434-47 49.323 47 49.323 47" style="opacity:1;fill:none;fill-opacity:1;stroke:#0095ac;stroke-width:30;stroke-linecap:round;stroke-linejoin:round;stroke-dasharray:none;stroke-opacity:1;paint-order:stroke markers fill"/></g></svg>